REM DIRINDEX 1\2,1\3,1\4
REM DIRNAME cjc032,folder01,folder02,folder03
TITLE ""
FILE "Disk2Track34.mp3" MP3
  TRACK 01 AUDIO
    TITLE "4:cjc032_0877"
    INDEX 01 00:00:00
  TRACK 02 AUDIO
    TITLE "4:cjc032_0878"
    INDEX 01 00:03:61
  TRACK 03 AUDIO
    TITLE "4:cjc032_0879"
    INDEX 01 00:22:52
  TRACK 04 AUDIO
    TITLE "4:cjc032_0880"
    INDEX 01 00:33:36
  TRACK 05 AUDIO
    TITLE "0:"
    INDEX 01 00:53:74
